<svg xmlns="http://www.w3.org/2000/svg" viewBox="0 0 32 32" > <defs > <style > .cls-1 {
    fill: rgba(255, 0, 0, 1);
}
</style> </defs> <g id="N"> <path class="cls-1" d="M28.16 4.63v23.09a.61.61 0 0 1-.61.61h-4.38c-1.42 0-1.9-.19-2.36-.83L10 12.54A.61.61 0 0 0 9 13v4.18a.78.78 0 0 0 .22.54l9.09 13a3.76 3.76 0 0 0 3.35 1.51h9.91a.61.61 0 0 0 .61-.61V.61a.61.61 0 0 0-.61-.61h-8.5a.61.61 0 0 0-.61.61v2.8a.61.61 0 0 0 .61.61h4.48a.61.61 0 0 1 .61.61z" /> <path class="cls-1" d="M4 27.55V4.47a.61.61 0 0 1 .61-.61H9c1.42 0 1.89.18 2.35.83l10.77 15a.62.62 0 0 0 1.05-.43V15a.78.78 0 0 0-.17-.5l-9.1-13A3.76 3.76 0 0 0 10.52 0H.61A.61.61 0 0 0 0 .61v31a.61.61 0 0 0 .61.61h8.5a.61.61 0 0 0 .61-.61v-2.8a.61.61 0 0 0-.61-.61H4.63a.61.61 0 0 1-.63-.65z" /> </g> </svg>
